<svg width="25" height="24" viewBox="0 0 25 24" fill="none" xmlns="http://www.w3.org/2000/svg">
<path d="M12.4981 14.5002L12.4973 14.5002C12.4315 14.5006 12.3663 14.488 12.3053 14.4631C12.2447 14.4383 12.1895 14.4018 12.1429 14.3558C12.1427 14.3556 12.1425 14.3554 12.1423 14.3552L8.14374 10.3566C8.0492 10.2621 7.99609 10.1339 7.99609 10.0002C7.99609 9.86649 8.0492 9.73827 8.14374 9.64374C8.23827 9.5492 8.36649 9.49609 8.50019 9.49609C8.63378 9.49609 8.7619 9.54912 8.85641 9.64352C8.85649 9.64359 8.85656 9.64367 8.85663 9.64374L12.1461 12.9432L12.4996 13.2978L12.8537 12.9437L16.1277 9.66974C16.2215 9.5945 16.3394 9.55545 16.4599 9.5601C16.5858 9.56496 16.7051 9.61713 16.7942 9.70618C16.8832 9.79522 16.9354 9.91459 16.9403 10.0404C16.9449 10.1609 16.9059 10.2789 16.8306 10.3726L12.8481 14.3552C12.8479 14.3554 12.8477 14.3556 12.8475 14.3558C12.7544 14.4478 12.629 14.4996 12.4981 14.5002Z" fill="#A098AE" stroke="#A098AE"/>
</svg>
