<svg width="396" height="94" viewBox="0 0 396 94" fill="none" xmlns="http://www.w3.org/2000/svg">
<path d="M3.19336 28.5269C19.4888 28.5269 54.8927 19.5338 71.4565 6.59141C88.0204 -6.35097 115.985 59.5913 135.229 59.5913C154.473 59.5913 168.438 59.5913 185.977 59.5913C203.516 59.5913 243.934 41.8449 265.468 41.8449C287.001 41.8449 309.512 45.328 330.138 45.328C350.764 45.328 375.512 9.72505 394.808 9.72505" stroke="#007DD6" stroke-width="2" stroke-linecap="round"/>
<path fill-rule="evenodd" clip-rule="evenodd" d="M3.23626 28.5269C19.5299 28.5269 54.9299 19.5338 71.492 6.59141C88.054 -6.35097 114.219 59.5913 133.461 59.5913C152.703 59.5913 169.757 59.5913 187.295 59.5913C204.832 59.5913 233.87 42.5119 255.402 42.5119C276.933 42.5119 318.775 48.8997 339.471 42.5119C360.168 36.124 375.514 9.72505 394.808 9.72505C394.683 15.3522 394.808 93.5499 394.808 93.5499L3.23626 92.7665C3.23626 92.7665 3.15046 34.9837 3.23626 28.5269Z" fill="url(#paint0_linear_886_289)"/>
<circle cx="392" cy="8.9082" r="4" fill="#0095FF"/>
<circle cx="340.277" cy="41.8105" r="4" fill="#0095FF"/>
<circle cx="256.209" cy="41.8105" r="4" fill="#0095FF"/>
<circle cx="188.102" cy="59.0449" r="4" fill="#0095FF"/>
<circle cx="132.766" cy="59.0449" r="4" fill="#0095FF"/>
<circle cx="77.4277" cy="4.20703" r="4" fill="#0095FF"/>
<circle cx="4" cy="27.709" r="4" fill="#0095FF"/>
<defs>
<linearGradient id="paint0_linear_886_289" x1="3.19336" y1="4.9082" x2="3.19336" y2="93.5499" gradientUnits="userSpaceOnUse">
<stop stop-color="#009DFF" stop-opacity="0.31728"/>
<stop offset="1" stop-color="#0095FF" stop-opacity="0.01"/>
</linearGradient>
</defs>
</svg>
