<svg width="398" height="167" viewBox="0 0 398 167" fill="none" xmlns="http://www.w3.org/2000/svg">
<path d="M3.19336 22.6134C28.2046 29.9036 48.4468 48.7055 76.6212 48.7055C104.796 48.7055 113.863 34.6041 131.958 34.6041C150.053 34.6041 162.213 62.8069 187.295 62.8069C212.377 62.8069 230.215 29.9036 255.402 29.9036C280.589 29.9036 315.405 81.6087 339.471 81.6087C363.537 81.6087 394.808 1.80664 394.808 1.80664" stroke="#05C283" stroke-width="2" stroke-linecap="round"/>
<path fill-rule="evenodd" clip-rule="evenodd" d="M3.19284 22.6134C28.2041 29.9036 48.4463 48.7055 76.6207 48.7055C104.795 48.7055 113.863 34.6041 131.958 34.6041C150.053 34.6041 162.213 62.8069 187.294 62.8069C212.376 62.8069 230.215 29.9036 255.401 29.9036C280.588 29.9036 315.405 81.6087 339.471 81.6087C363.537 81.6087 394.808 1.80664 394.808 1.80664V167H3.19284C3.19284 167 3.02591 30.515 3.19284 22.6134Z" fill="url(#paint0_linear_886_279)"/>
<circle cx="394" cy="4" r="4" fill="#07E098"/>
<circle cx="340.277" cy="80.9082" r="4" fill="#07E098"/>
<circle cx="256.209" cy="29.2031" r="4" fill="#07E098"/>
<circle cx="188.102" cy="62.1055" r="4" fill="#07E098"/>
<circle cx="132.766" cy="33.9023" r="4" fill="#07E098"/>
<circle cx="77.4277" cy="48.0039" r="4" fill="#07E098"/>
<circle cx="4" cy="21.3691" r="4" fill="#07E098"/>
<defs>
<linearGradient id="paint0_linear_886_279" x1="3.10938" y1="1.80664" x2="3.10938" y2="167" gradientUnits="userSpaceOnUse">
<stop stop-color="#00E096" stop-opacity="0.326568"/>
<stop offset="1" stop-color="white" stop-opacity="0.01"/>
</linearGradient>
</defs>
</svg>
