<svg width="26" height="26" viewBox="0 0 26 26" fill="none" xmlns="http://www.w3.org/2000/svg">
<g clip-path="url(#clip0_886_206)">
<path d="M0.5 19.2496C0.5 19.9863 0.792658 20.6928 1.31359 21.2138C1.83453 21.7347 2.54107 22.0273 3.27778 22.0273H22.7222C23.4589 22.0273 24.1655 21.7347 24.6864 21.2138C25.2073 20.6928 25.5 19.9863 25.5 19.2496V15.7773H0.5V19.2496Z" fill="#138808"/>
<path d="M25.5 10.2227V6.75043C25.5 6.01372 25.2073 5.30718 24.6864 4.78625C24.1655 4.26531 23.4589 3.97266 22.7222 3.97266H3.27778C2.54107 3.97266 1.83453 4.26531 1.31359 4.78625C0.792658 5.30718 0.5 6.01372 0.5 6.75043L0.5 10.2227H25.5Z" fill="#FF9933"/>
<path d="M0.5 9.99023H25.5V16.009H0.5V9.99023Z" fill="#F7F7F7"/>
<path d="M13.0004 15.7782C14.5346 15.7782 15.7782 14.5346 15.7782 13.0004C15.7782 11.4663 14.5346 10.2227 13.0004 10.2227C11.4663 10.2227 10.2227 11.4663 10.2227 13.0004C10.2227 14.5346 11.4663 15.7782 13.0004 15.7782Z" fill="#000080"/>
<path d="M13 15.3438C14.2944 15.3438 15.3438 14.2944 15.3438 13C15.3438 11.7056 14.2944 10.6562 13 10.6562C11.7056 10.6562 10.6562 11.7056 10.6562 13C10.6562 14.2944 11.7056 15.3438 13 15.3438Z" fill="#F7F7F7"/>
<path d="M13.069 12.1315L12.9996 12.5829L12.9301 12.1315L12.9996 10.7773L13.069 12.1315ZM12.4246 10.853L12.7079 12.1787L12.8919 12.5968L12.8419 12.1433L12.4246 10.853ZM11.8885 11.0753L12.5051 12.2822L12.7912 12.6385L12.626 12.2128L11.8885 11.0753ZM11.428 11.428L12.3364 12.435L12.7051 12.7051L12.435 12.3364L11.428 11.428ZM11.0753 11.8885L12.2128 12.626L12.6385 12.7912L12.2822 12.5051L11.0753 11.8885ZM10.853 12.4246L12.1433 12.8419L12.5968 12.8919L12.1787 12.7079L10.853 12.4246ZM10.7773 12.9996L12.1315 13.069L12.5829 12.9996L12.1315 12.9301L10.7773 12.9996ZM10.853 13.5746L12.1787 13.2912L12.5968 13.1072L12.1433 13.1572L10.853 13.5746ZM11.0753 14.1107L12.2822 13.494L12.6385 13.2079L12.2128 13.3732L11.0753 14.1107ZM11.428 14.5711L12.435 13.6628L12.7051 13.294L12.3364 13.5641L11.428 14.5711ZM11.8885 14.9239L12.626 13.7864L12.7912 13.3607L12.5051 13.7169L11.8885 14.9239ZM12.4246 15.1461L12.8419 13.8558L12.8919 13.4023L12.7079 13.8204L12.4246 15.1461ZM12.9996 15.2218L13.069 13.8676L12.9996 13.4162L12.9301 13.8676L12.9996 15.2218ZM13.5746 15.1461L13.2912 13.8204L13.1072 13.4023L13.1572 13.8558L13.5746 15.1461ZM14.1107 14.9239L13.494 13.7169L13.2079 13.3607L13.3732 13.7864L14.1107 14.9239ZM14.5711 14.5711L13.6628 13.5641L13.294 13.294L13.5641 13.6628L14.5711 14.5711ZM14.9239 14.1107L13.7864 13.3732L13.3607 13.2079L13.7169 13.494L14.9239 14.1107ZM15.1461 13.5746L13.8558 13.1572L13.4023 13.1072L13.8204 13.2912L15.1461 13.5746ZM15.2218 12.9996L13.8676 12.9301L13.4162 12.9996L13.8676 13.069L15.2218 12.9996ZM15.1461 12.4246L13.8204 12.7079L13.4023 12.8919L13.8558 12.8419L15.1461 12.4246ZM14.9239 11.8885L13.7169 12.5051L13.3607 12.7912L13.7864 12.626L14.9239 11.8885ZM14.5711 11.428L13.5641 12.3364L13.294 12.7051L13.6628 12.435L14.5711 11.428ZM14.1107 11.0753L13.3732 12.2128L13.2079 12.6385L13.494 12.2822L14.1107 11.0753ZM13.5746 10.853L13.1572 12.1433L13.1072 12.5968L13.2912 12.1787L13.5746 10.853Z" fill="#6666B3"/>
<path d="M12.6936 10.8188C12.7703 10.8188 12.8325 10.7566 12.8325 10.6799C12.8325 10.6032 12.7703 10.541 12.6936 10.541C12.6169 10.541 12.5547 10.6032 12.5547 10.6799C12.5547 10.7566 12.6169 10.8188 12.6936 10.8188Z" fill="#000080"/>
<path d="M12.1037 10.977C12.1804 10.977 12.2426 10.9148 12.2426 10.8381C12.2426 10.7614 12.1804 10.6992 12.1037 10.6992C12.027 10.6992 11.9648 10.7614 11.9648 10.8381C11.9648 10.9148 12.027 10.977 12.1037 10.977Z" fill="#000080"/>
<path d="M11.5744 11.2817C11.6511 11.2817 11.7133 11.2195 11.7133 11.1428C11.7133 11.0661 11.6511 11.0039 11.5744 11.0039C11.4977 11.0039 11.4355 11.0661 11.4355 11.1428C11.4355 11.2195 11.4977 11.2817 11.5744 11.2817Z" fill="#000080"/>
<path d="M11.1428 11.7133C11.2195 11.7133 11.2817 11.6511 11.2817 11.5744C11.2817 11.4977 11.2195 11.4355 11.1428 11.4355C11.0661 11.4355 11.0039 11.4977 11.0039 11.5744C11.0039 11.6511 11.0661 11.7133 11.1428 11.7133Z" fill="#000080"/>
<path d="M10.8381 12.2426C10.9148 12.2426 10.977 12.1804 10.977 12.1037C10.977 12.027 10.9148 11.9648 10.8381 11.9648C10.7614 11.9648 10.6992 12.027 10.6992 12.1037C10.6992 12.1804 10.7614 12.2426 10.8381 12.2426Z" fill="#000080"/>
<path d="M10.6799 12.8325C10.7566 12.8325 10.8188 12.7703 10.8188 12.6936C10.8188 12.6169 10.7566 12.5547 10.6799 12.5547C10.6032 12.5547 10.541 12.6169 10.541 12.6936C10.541 12.7703 10.6032 12.8325 10.6799 12.8325Z" fill="#000080"/>
<path d="M10.6799 13.4438C10.7566 13.4438 10.8188 13.3816 10.8188 13.3049C10.8188 13.2282 10.7566 13.166 10.6799 13.166C10.6032 13.166 10.541 13.2282 10.541 13.3049C10.541 13.3816 10.6032 13.4438 10.6799 13.4438Z" fill="#000080"/>
<path d="M10.8381 14.0356C10.9148 14.0356 10.977 13.9734 10.977 13.8967C10.977 13.82 10.9148 13.7578 10.8381 13.7578C10.7614 13.7578 10.6992 13.82 10.6992 13.8967C10.6992 13.9734 10.7614 14.0356 10.8381 14.0356Z" fill="#000080"/>
<path d="M11.1428 14.5649C11.2195 14.5649 11.2817 14.5027 11.2817 14.426C11.2817 14.3493 11.2195 14.2871 11.1428 14.2871C11.0661 14.2871 11.0039 14.3493 11.0039 14.426C11.0039 14.5027 11.0661 14.5649 11.1428 14.5649Z" fill="#000080"/>
<path d="M11.5744 14.9965C11.6511 14.9965 11.7133 14.9343 11.7133 14.8576C11.7133 14.7809 11.6511 14.7188 11.5744 14.7188C11.4977 14.7188 11.4355 14.7809 11.4355 14.8576C11.4355 14.9343 11.4977 14.9965 11.5744 14.9965Z" fill="#000080"/>
<path d="M12.1037 15.3012C12.1804 15.3012 12.2426 15.239 12.2426 15.1623C12.2426 15.0856 12.1804 15.0234 12.1037 15.0234C12.027 15.0234 11.9648 15.0856 11.9648 15.1623C11.9648 15.239 12.027 15.3012 12.1037 15.3012Z" fill="#000080"/>
<path d="M12.6936 15.4594C12.7703 15.4594 12.8325 15.3972 12.8325 15.3205C12.8325 15.2438 12.7703 15.1816 12.6936 15.1816C12.6169 15.1816 12.5547 15.2438 12.5547 15.3205C12.5547 15.3972 12.6169 15.4594 12.6936 15.4594Z" fill="#000080"/>
<path d="M13.3049 15.4594C13.3816 15.4594 13.4438 15.3972 13.4438 15.3205C13.4438 15.2438 13.3816 15.1816 13.3049 15.1816C13.2282 15.1816 13.166 15.2438 13.166 15.3205C13.166 15.3972 13.2282 15.4594 13.3049 15.4594Z" fill="#000080"/>
<path d="M13.8967 15.3012C13.9734 15.3012 14.0356 15.239 14.0356 15.1623C14.0356 15.0856 13.9734 15.0234 13.8967 15.0234C13.82 15.0234 13.7578 15.0856 13.7578 15.1623C13.7578 15.239 13.82 15.3012 13.8967 15.3012Z" fill="#000080"/>
<path d="M14.426 14.9965C14.5027 14.9965 14.5649 14.9343 14.5649 14.8576C14.5649 14.7809 14.5027 14.7188 14.426 14.7188C14.3493 14.7188 14.2871 14.7809 14.2871 14.8576C14.2871 14.9343 14.3493 14.9965 14.426 14.9965Z" fill="#000080"/>
<path d="M14.8576 14.5649C14.9343 14.5649 14.9965 14.5027 14.9965 14.426C14.9965 14.3493 14.9343 14.2871 14.8576 14.2871C14.7809 14.2871 14.7188 14.3493 14.7188 14.426C14.7188 14.5027 14.7809 14.5649 14.8576 14.5649Z" fill="#000080"/>
<path d="M15.1623 14.0356C15.239 14.0356 15.3012 13.9734 15.3012 13.8967C15.3012 13.82 15.239 13.7578 15.1623 13.7578C15.0856 13.7578 15.0234 13.82 15.0234 13.8967C15.0234 13.9734 15.0856 14.0356 15.1623 14.0356Z" fill="#000080"/>
<path d="M15.3205 13.4438C15.3972 13.4438 15.4594 13.3816 15.4594 13.3049C15.4594 13.2282 15.3972 13.166 15.3205 13.166C15.2438 13.166 15.1816 13.2282 15.1816 13.3049C15.1816 13.3816 15.2438 13.4438 15.3205 13.4438Z" fill="#000080"/>
<path d="M15.3205 12.8325C15.3972 12.8325 15.4594 12.7703 15.4594 12.6936C15.4594 12.6169 15.3972 12.5547 15.3205 12.5547C15.2438 12.5547 15.1816 12.6169 15.1816 12.6936C15.1816 12.7703 15.2438 12.8325 15.3205 12.8325Z" fill="#000080"/>
<path d="M15.1623 12.2426C15.239 12.2426 15.3012 12.1804 15.3012 12.1037C15.3012 12.027 15.239 11.9648 15.1623 11.9648C15.0856 11.9648 15.0234 12.027 15.0234 12.1037C15.0234 12.1804 15.0856 12.2426 15.1623 12.2426Z" fill="#000080"/>
<path d="M14.8576 11.7133C14.9343 11.7133 14.9965 11.6511 14.9965 11.5744C14.9965 11.4977 14.9343 11.4355 14.8576 11.4355C14.7809 11.4355 14.7188 11.4977 14.7188 11.5744C14.7188 11.6511 14.7809 11.7133 14.8576 11.7133Z" fill="#000080"/>
<path d="M14.426 11.2817C14.5027 11.2817 14.5649 11.2195 14.5649 11.1428C14.5649 11.0661 14.5027 11.0039 14.426 11.0039C14.3493 11.0039 14.2871 11.0661 14.2871 11.1428C14.2871 11.2195 14.3493 11.2817 14.426 11.2817Z" fill="#000080"/>
<path d="M13.8967 10.977C13.9734 10.977 14.0356 10.9148 14.0356 10.8381C14.0356 10.7614 13.9734 10.6992 13.8967 10.6992C13.82 10.6992 13.7578 10.7614 13.7578 10.8381C13.7578 10.9148 13.82 10.977 13.8967 10.977Z" fill="#000080"/>
<path d="M13.3049 10.8188C13.3816 10.8188 13.4438 10.7566 13.4438 10.6799C13.4438 10.6032 13.3816 10.541 13.3049 10.541C13.2282 10.541 13.166 10.6032 13.166 10.6799C13.166 10.7566 13.2282 10.8188 13.3049 10.8188Z" fill="#000080"/>
<path d="M13 13.625C13.3452 13.625 13.625 13.3452 13.625 13C13.625 12.6548 13.3452 12.375 13 12.375C12.6548 12.375 12.375 12.6548 12.375 13C12.375 13.3452 12.6548 13.625 13 13.625Z" fill="#000080"/>
</g>
<defs>
<clipPath id="clip0_886_206">
<rect width="25" height="25" fill="white" transform="translate(0.5 0.5)"/>
</clipPath>
</defs>
</svg>
